<svg width="493" height="529" viewBox="0 0 493 529" fill="none" xmlns="http://www.w3.org/2000/svg">
<g filter="url(#filter0_d_213_49)">
<rect x="4" width="485" height="521" rx="20" fill="#007EA7"/>
<path d="M4 20C4 8.95431 12.9543 0 24 0H469C480.046 0 489 8.95431 489 20V72H4V20Z" fill="white"/>
<path d="M24 0.5H469C479.77 0.5 488.5 9.23045 488.5 20V71.5H4.5V20C4.5 9.23045 13.2304 0.5 24 0.5Z" stroke="black" stroke-opacity="0.15"/>
<path d="M4 449H489V501C489 512.046 480.046 521 469 521H24C12.9543 521 4 512.046 4 501V449Z" fill="white"/>
<path d="M4.5 449.5H488.5V501C488.5 511.77 479.77 520.5 469 520.5H24C13.2304 520.5 4.5 511.77 4.5 501V449.5Z" stroke="black" stroke-opacity="0.15"/>
<g filter="url(#filter1_d_213_49)">
<rect x="53" y="127" width="387" height="267" rx="20" fill="#F5F5F5"/>
<rect x="53.5" y="127.5" width="386" height="266" rx="19.5" stroke="#00A8E8"/>
</g>
<line x1="53" y1="338" x2="440" y2="338" stroke="#00A8E8" stroke-width="2"/>
<line x1="53" y1="234" x2="440" y2="234" stroke="#00A8E8" stroke-width="2"/>
<line x1="53" y1="181" x2="440" y2="181" stroke="#00A8E8" stroke-width="2"/>
<line x1="53" y1="287" x2="440" y2="287" stroke="#00A8E8" stroke-width="2"/>
<line x1="313" y1="127" x2="313" y2="394" stroke="#00A8E8" stroke-width="2"/>
<line x1="183" y1="127" x2="183" y2="394" stroke="#00A8E8" stroke-width="2"/>
<path d="M252.091 26.908H249.625C249.479 26.1987 249.224 25.5756 248.859 25.0387C248.501 24.5018 248.064 24.051 247.547 23.6864C247.036 23.3152 246.469 23.0368 245.846 22.8512C245.223 22.6656 244.574 22.5728 243.897 22.5728C242.664 22.5728 241.547 22.8843 240.547 23.5075C239.552 24.1306 238.76 25.0486 238.17 26.2617C237.587 27.4748 237.295 28.9629 237.295 30.7262C237.295 32.4895 237.587 33.9776 238.17 35.1907C238.76 36.4038 239.552 37.3218 240.547 37.945C241.547 38.5681 242.664 38.8796 243.897 38.8796C244.574 38.8796 245.223 38.7868 245.846 38.6012C246.469 38.4156 247.036 38.1405 247.547 37.7759C248.064 37.4047 248.501 36.9506 248.859 36.4137C249.224 35.8701 249.479 35.247 249.625 34.5444H252.091C251.905 35.5851 251.567 36.5164 251.076 37.3384C250.586 38.1604 249.976 38.8597 249.247 39.4364C248.518 40.0065 247.699 40.4407 246.791 40.739C245.889 41.0373 244.925 41.1864 243.897 41.1864C242.161 41.1864 240.616 40.7622 239.264 39.9137C237.912 39.0652 236.848 37.8588 236.072 36.2944C235.297 34.73 234.909 32.8739 234.909 30.7262C234.909 28.5785 235.297 26.7224 236.072 25.158C236.848 23.5936 237.912 22.3872 239.264 21.5387C240.616 20.6902 242.161 20.266 243.897 20.266C244.925 20.266 245.889 20.4151 246.791 20.7134C247.699 21.0117 248.518 21.4492 249.247 22.0259C249.976 22.596 250.586 23.292 251.076 24.114C251.567 24.9293 251.905 25.8607 252.091 26.908Z" fill="black"/>
<path d="M230.706 471.032C233.6 471.032 235.821 471.881 237.37 473.58C238.938 475.26 239.722 477.677 239.722 480.832C239.722 482.848 239.358 484.593 238.63 486.068C237.921 487.543 236.885 488.672 235.522 489.456C234.178 490.24 232.573 490.632 230.706 490.632H224.91V471.032H230.706ZM230.706 488.952C232.984 488.952 234.71 488.271 235.886 486.908C237.062 485.527 237.65 483.511 237.65 480.86C237.65 478.116 237.072 476.072 235.914 474.728C234.776 473.384 233.04 472.712 230.706 472.712H226.926V488.952H230.706ZM248.987 490.912C246.822 490.912 245.188 490.24 244.087 488.896C242.986 487.552 242.435 485.555 242.435 482.904C242.435 477.603 244.619 474.952 248.987 474.952C253.355 474.952 255.539 477.603 255.539 482.904C255.539 485.555 254.988 487.552 253.887 488.896C252.786 490.24 251.152 490.912 248.987 490.912ZM248.987 489.344C250.574 489.344 251.731 488.831 252.459 487.804C253.206 486.759 253.579 485.125 253.579 482.904C253.579 480.701 253.206 479.087 252.459 478.06C251.731 477.033 250.574 476.52 248.987 476.52C247.4 476.52 246.234 477.033 245.487 478.06C244.759 479.087 244.395 480.701 244.395 482.904C244.395 485.125 244.759 486.759 245.487 487.804C246.234 488.831 247.4 489.344 248.987 489.344Z" fill="black"/>
<ellipse cx="119.5" cy="182" rx="8.5" ry="9" fill="#003459"/>
<circle cx="375" cy="339" r="9" fill="#003459"/>
<circle cx="247" cy="237" r="9" fill="#003459"/>
<path d="M121.583 420.64C122.588 420.831 123.42 421.238 124.079 421.862C124.738 422.469 125.067 423.457 125.067 424.826C125.067 425.901 124.79 426.845 124.235 427.66C123.68 428.475 122.883 429.107 121.843 429.558C120.803 430.009 119.581 430.234 118.177 430.234C116.288 430.234 114.771 429.965 113.627 429.428C112.5 428.891 111.937 428.111 111.937 427.088C111.937 426.499 112.162 426.022 112.613 425.658C113.064 425.294 113.523 425.112 113.991 425.112C114.494 425.961 115.066 426.594 115.707 427.01C116.366 427.426 117.215 427.634 118.255 427.634C119.26 427.634 120.014 427.383 120.517 426.88C121.037 426.377 121.297 425.701 121.297 424.852C121.297 423.881 121.08 423.153 120.647 422.668C120.214 422.183 119.598 421.94 118.801 421.94L117.969 421.966C117.588 422.001 117.284 422.018 117.059 422.018C116.695 422.018 116.392 421.827 116.149 421.446C115.924 421.047 115.811 420.649 115.811 420.25C115.811 419.747 115.958 419.496 116.253 419.496H118.047C118.948 419.496 119.616 419.271 120.049 418.82C120.5 418.369 120.725 417.65 120.725 416.662C120.725 415.986 120.534 415.431 120.153 414.998C119.772 414.565 119.165 414.348 118.333 414.348C117.501 414.348 116.851 414.599 116.383 415.102C115.915 415.587 115.551 416.263 115.291 417.13C114.372 417.13 113.67 416.957 113.185 416.61C112.717 416.246 112.483 415.761 112.483 415.154C112.483 414.669 112.717 414.166 113.185 413.646C113.653 413.126 114.329 412.693 115.213 412.346C116.114 411.982 117.172 411.8 118.385 411.8C120.326 411.8 121.826 412.207 122.883 413.022C123.958 413.819 124.495 414.989 124.495 416.532C124.495 417.572 124.218 418.439 123.663 419.132C123.126 419.808 122.432 420.311 121.583 420.64ZM253.342 417.546C253.342 419.297 252.744 420.943 251.548 422.486C250.369 424.011 248.514 425.658 245.984 427.426H252.952V430H241.278V428.024C243.566 426.152 245.273 424.661 246.4 423.552C247.544 422.443 248.358 421.411 248.844 420.458C249.329 419.505 249.572 418.447 249.572 417.286C249.572 416.419 249.346 415.717 248.896 415.18C248.445 414.625 247.804 414.348 246.972 414.348C246.088 414.348 245.377 414.686 244.84 415.362C244.32 416.038 244.016 416.991 243.93 418.222C242.786 418.222 241.971 418.023 241.486 417.624C241.018 417.225 240.784 416.593 240.784 415.726C240.784 415.119 241.044 414.513 241.564 413.906C242.101 413.282 242.838 412.779 243.774 412.398C244.727 411.999 245.793 411.8 246.972 411.8C248.896 411.8 250.438 412.303 251.6 413.308C252.761 414.296 253.342 415.709 253.342 417.546ZM378.816 427.53V430H368.832V427.53H372.004V416.168C371.276 416.688 370.556 416.948 369.846 416.948C369.308 416.948 368.858 416.801 368.494 416.506C368.147 416.211 367.974 415.743 367.974 415.102C367.974 414.755 368.017 414.417 368.104 414.088C368.918 414.001 369.872 413.759 370.964 413.36C372.056 412.944 372.922 412.424 373.564 411.8H375.774V427.53H378.816Z" fill="black" fill-opacity="0.7"/>
</g>
<defs>
<filter id="filter0_d_213_49" x="0" y="0" width="493" height="529" filterUnits="userSpaceOnUse" color-interpolation-filters="sRGB">
<feFlood flood-opacity="0" result="BackgroundImageFix"/>
<feColorMatrix in="SourceAlpha" type="matrix" values="0 0 0 0 0 0 0 0 0 0 0 0 0 0 0 0 0 0 127 0" result="hardAlpha"/>
<feOffset dy="4"/>
<feGaussianBlur stdDeviation="2"/>
<feComposite in2="hardAlpha" operator="out"/>
<feColorMatrix type="matrix" values="0 0 0 0 0 0 0 0 0 0 0 0 0 0 0 0 0 0 0.25 0"/>
<feBlend mode="normal" in2="BackgroundImageFix" result="effect1_dropShadow_213_49"/>
<feBlend mode="normal" in="SourceGraphic" in2="effect1_dropShadow_213_49" result="shape"/>
</filter>
<filter id="filter1_d_213_49" x="49" y="127" width="395" height="275" filterUnits="userSpaceOnUse" color-interpolation-filters="sRGB">
<feFlood flood-opacity="0" result="BackgroundImageFix"/>
<feColorMatrix in="SourceAlpha" type="matrix" values="0 0 0 0 0 0 0 0 0 0 0 0 0 0 0 0 0 0 127 0" result="hardAlpha"/>
<feOffset dy="4"/>
<feGaussianBlur stdDeviation="2"/>
<feComposite in2="hardAlpha" operator="out"/>
<feColorMatrix type="matrix" values="0 0 0 0 0 0 0 0 0 0 0 0 0 0 0 0 0 0 0.25 0"/>
<feBlend mode="normal" in2="BackgroundImageFix" result="effect1_dropShadow_213_49"/>
<feBlend mode="normal" in="SourceGraphic" in2="effect1_dropShadow_213_49" result="shape"/>
</filter>
</defs>
</svg>
