<svg width="493" height="529" viewBox="0 0 493 529" fill="none" xmlns="http://www.w3.org/2000/svg">
<g filter="url(#filter0_d_213_27)">
<path d="M4 20C4 8.95431 12.9543 0 24 0H469C480.046 0 489 8.95431 489 20V501C489 512.046 480.046 521 469 521H24C12.9543 521 4 512.046 4 501V20Z" fill="#007EA7"/>
<path d="M125.663 419.132C125.198 419.717 125.35 421.229 125.917 421.716C125.972 421.763 126.026 421.812 126.079 421.862C126.738 422.469 127.067 423.457 127.067 424.826C127.067 425.901 126.79 426.845 126.235 427.66C125.68 428.475 124.883 429.107 123.843 429.558C122.803 430.009 121.581 430.234 120.177 430.234C118.288 430.234 116.771 429.965 115.627 429.428C114.5 428.891 113.937 428.111 113.937 427.088C113.937 426.499 114.162 426.022 114.613 425.658V425.658C115.342 425.069 116.244 425.645 116.89 426.324C117.149 426.596 117.421 426.824 117.707 427.01C118.366 427.426 119.215 427.634 120.255 427.634C121.26 427.634 122.014 427.383 122.517 426.88C123.037 426.377 123.297 425.701 123.297 424.852C123.297 423.881 123.08 423.153 122.647 422.668C122.214 422.183 121.598 421.94 120.801 421.94L119.969 421.966C119.588 422.001 119.284 422.018 119.059 422.018C118.695 422.018 118.392 421.827 118.149 421.446C117.924 421.047 117.811 420.649 117.811 420.25C117.811 419.747 117.958 419.496 118.253 419.496H120.047C120.948 419.496 121.616 419.271 122.049 418.82C122.5 418.369 122.725 417.65 122.725 416.662C122.725 415.986 122.534 415.431 122.153 414.998C121.772 414.565 121.165 414.348 120.333 414.348C119.501 414.348 118.851 414.599 118.383 415.102C118.355 415.131 118.328 415.161 118.3 415.191C117.427 416.165 116.249 417.37 115.185 416.61V416.61C114.717 416.246 114.483 415.761 114.483 415.154C114.483 414.669 114.717 414.166 115.185 413.646C115.653 413.126 116.329 412.693 117.213 412.346C118.114 411.982 119.172 411.8 120.385 411.8C122.326 411.8 123.826 412.207 124.883 413.022C125.958 413.819 126.495 414.989 126.495 416.532C126.495 417.572 126.218 418.439 125.663 419.132V419.132ZM255.342 417.546C255.342 419.297 254.744 420.943 253.548 422.486C253.144 423.008 252.661 423.545 252.099 424.096C250.934 425.237 251.652 427.426 253.284 427.426H253.665C254.376 427.426 254.952 428.002 254.952 428.713V428.713C254.952 429.424 254.376 430 253.665 430H244.618C243.878 430 243.278 429.4 243.278 428.659V428.659C243.278 428.257 243.459 427.876 243.769 427.62C245.812 425.937 247.355 424.58 248.4 423.552C249.544 422.443 250.358 421.411 250.844 420.458C251.329 419.505 251.572 418.447 251.572 417.286C251.572 416.419 251.346 415.717 250.896 415.18C250.445 414.625 249.804 414.348 248.972 414.348C248.088 414.348 247.377 414.686 246.84 415.362C246.744 415.486 246.656 415.62 246.575 415.764C245.864 417.02 244.601 418.54 243.486 417.624V417.624C243.018 417.225 242.784 416.593 242.784 415.726C242.784 415.119 243.044 414.513 243.564 413.906C244.101 413.282 244.838 412.779 245.774 412.398C246.727 411.999 247.793 411.8 248.972 411.8C250.896 411.8 252.438 412.303 253.6 413.308C254.761 414.296 255.342 415.709 255.342 417.546ZM379.581 427.53C380.263 427.53 380.816 428.083 380.816 428.765V428.765C380.816 429.447 380.263 430 379.581 430H372.067C371.385 430 370.832 429.447 370.832 428.765V428.765C370.832 428.083 371.385 427.53 372.067 427.53H372.418C373.294 427.53 374.004 426.82 374.004 425.944V418.501C374.004 417.524 372.822 416.948 371.846 416.948V416.948C371.308 416.948 370.858 416.801 370.494 416.506C370.147 416.211 369.974 415.743 369.974 415.102V415.102C369.974 414.485 370.512 414.052 371.114 413.917C371.678 413.79 372.295 413.604 372.964 413.36C373.803 413.04 374.508 412.66 375.081 412.217C375.405 411.967 375.793 411.8 376.202 411.8V411.8C377.07 411.8 377.774 412.504 377.774 413.372V426.009C377.774 426.849 378.455 427.53 379.295 427.53H379.581Z" fill="#007EA7"/>
<path d="M4 20C4 8.95431 12.9543 0 24 0H469C480.046 0 489 8.95431 489 20V72H4V20Z" fill="white"/>
<path d="M24 0.5H469C479.77 0.5 488.5 9.23045 488.5 20V71.5H4.5V20C4.5 9.23045 13.2304 0.5 24 0.5Z" stroke="black" stroke-opacity="0.15"/>
<path d="M4 449H489V501C489 512.046 480.046 521 469 521H24C12.9543 521 4 512.046 4 501V449Z" fill="white"/>
<path d="M4.5 449.5H488.5V501C488.5 511.77 479.77 520.5 469 520.5H24C13.2304 520.5 4.5 511.77 4.5 501V449.5Z" stroke="black" stroke-opacity="0.15"/>
<g filter="url(#filter1_d_213_27)">
<rect x="53" y="127" width="387" height="267" rx="20" fill="#F5F5F5"/>
<rect x="53.5" y="127.5" width="386" height="266" rx="19.5" stroke="#00A8E8"/>
</g>
<line x1="53" y1="338" x2="440" y2="338" stroke="#00A8E8" stroke-width="2"/>
<line x1="53" y1="234" x2="440" y2="234" stroke="#00A8E8" stroke-width="2"/>
<line x1="53" y1="181" x2="440" y2="181" stroke="#00A8E8" stroke-width="2"/>
<line x1="53" y1="287" x2="440" y2="287" stroke="#00A8E8" stroke-width="2"/>
<line x1="313" y1="127" x2="313" y2="394" stroke="#00A8E8" stroke-width="2"/>
<line x1="183" y1="127" x2="183" y2="394" stroke="#00A8E8" stroke-width="2"/>
<path d="M240.308 490.632C240.14 484.771 239.608 479.18 238.712 473.86C238.04 475.391 237.377 477.099 236.724 478.984C236.07 480.851 235.025 484.08 233.588 488.672H232.132C230.862 484.64 229.864 481.607 229.136 479.572C228.426 477.519 227.708 475.643 226.98 473.944C226.084 479.04 225.552 484.603 225.384 490.632H223.368C223.461 487.123 223.685 483.669 224.04 480.272C224.413 476.875 224.889 473.795 225.468 471.032H227.708C228.828 473.44 229.77 475.643 230.536 477.64C231.301 479.637 232.076 481.924 232.86 484.5C233.644 481.924 234.418 479.647 235.184 477.668C235.949 475.671 236.882 473.459 237.984 471.032H240.224C240.802 473.795 241.269 476.875 241.624 480.272C241.997 483.669 242.23 487.123 242.324 490.632H240.308ZM247.535 475.232H249.439V490.632H247.535V475.232ZM248.375 472.404C247.535 472.404 247.115 471.984 247.115 471.144V470.892C247.115 470.052 247.535 469.632 248.375 469.632H248.599C249.439 469.632 249.859 470.052 249.859 470.892V471.144C249.859 471.984 249.439 472.404 248.599 472.404H248.375Z" fill="black"/>
<path d="M254.306 36.32C254.306 36.992 254.203 37.44 253.998 37.664C253.811 37.888 253.429 38 252.85 38H242.574V18.4H254.278V20.08H244.59V27.136H252.934V28.816H244.59V36.32H254.306Z" fill="black"/>
<circle cx="248" cy="182" r="9" fill="#003459"/>
<circle cx="248" cy="234.198" r="9" fill="#003459"/>
<circle cx="376" cy="288" r="9" fill="#003459"/>
<path d="M121.583 420.64C122.588 420.831 123.42 421.238 124.079 421.862C124.738 422.469 125.067 423.457 125.067 424.826C125.067 425.901 124.79 426.845 124.235 427.66C123.68 428.475 122.883 429.107 121.843 429.558C120.803 430.009 119.581 430.234 118.177 430.234C116.288 430.234 114.771 429.965 113.627 429.428C112.5 428.891 111.937 428.111 111.937 427.088C111.937 426.499 112.162 426.022 112.613 425.658C113.064 425.294 113.523 425.112 113.991 425.112C114.494 425.961 115.066 426.594 115.707 427.01C116.366 427.426 117.215 427.634 118.255 427.634C119.26 427.634 120.014 427.383 120.517 426.88C121.037 426.377 121.297 425.701 121.297 424.852C121.297 423.881 121.08 423.153 120.647 422.668C120.214 422.183 119.598 421.94 118.801 421.94L117.969 421.966C117.588 422.001 117.284 422.018 117.059 422.018C116.695 422.018 116.392 421.827 116.149 421.446C115.924 421.047 115.811 420.649 115.811 420.25C115.811 419.747 115.958 419.496 116.253 419.496H118.047C118.948 419.496 119.616 419.271 120.049 418.82C120.5 418.369 120.725 417.65 120.725 416.662C120.725 415.986 120.534 415.431 120.153 414.998C119.772 414.565 119.165 414.348 118.333 414.348C117.501 414.348 116.851 414.599 116.383 415.102C115.915 415.587 115.551 416.263 115.291 417.13C114.372 417.13 113.67 416.957 113.185 416.61C112.717 416.246 112.483 415.761 112.483 415.154C112.483 414.669 112.717 414.166 113.185 413.646C113.653 413.126 114.329 412.693 115.213 412.346C116.114 411.982 117.172 411.8 118.385 411.8C120.326 411.8 121.826 412.207 122.883 413.022C123.958 413.819 124.495 414.989 124.495 416.532C124.495 417.572 124.218 418.439 123.663 419.132C123.126 419.808 122.432 420.311 121.583 420.64ZM253.342 417.546C253.342 419.297 252.744 420.943 251.548 422.486C250.369 424.011 248.514 425.658 245.984 427.426H252.952V430H241.278V428.024C243.566 426.152 245.273 424.661 246.4 423.552C247.544 422.443 248.358 421.411 248.844 420.458C249.329 419.505 249.572 418.447 249.572 417.286C249.572 416.419 249.346 415.717 248.896 415.18C248.445 414.625 247.804 414.348 246.972 414.348C246.088 414.348 245.377 414.686 244.84 415.362C244.32 416.038 244.016 416.991 243.93 418.222C242.786 418.222 241.971 418.023 241.486 417.624C241.018 417.225 240.784 416.593 240.784 415.726C240.784 415.119 241.044 414.513 241.564 413.906C242.101 413.282 242.838 412.779 243.774 412.398C244.727 411.999 245.793 411.8 246.972 411.8C248.896 411.8 250.438 412.303 251.6 413.308C252.761 414.296 253.342 415.709 253.342 417.546ZM378.816 427.53V430H368.832V427.53H372.004V416.168C371.276 416.688 370.556 416.948 369.846 416.948C369.308 416.948 368.858 416.801 368.494 416.506C368.147 416.211 367.974 415.743 367.974 415.102C367.974 414.755 368.017 414.417 368.104 414.088C368.918 414.001 369.872 413.759 370.964 413.36C372.056 412.944 372.922 412.424 373.564 411.8H375.774V427.53H378.816Z" fill="black" fill-opacity="0.7"/>
</g>
<defs>
<filter id="filter0_d_213_27" x="0" y="0" width="493" height="529" filterUnits="userSpaceOnUse" color-interpolation-filters="sRGB">
<feFlood flood-opacity="0" result="BackgroundImageFix"/>
<feColorMatrix in="SourceAlpha" type="matrix" values="0 0 0 0 0 0 0 0 0 0 0 0 0 0 0 0 0 0 127 0" result="hardAlpha"/>
<feOffset dy="4"/>
<feGaussianBlur stdDeviation="2"/>
<feComposite in2="hardAlpha" operator="out"/>
<feColorMatrix type="matrix" values="0 0 0 0 0 0 0 0 0 0 0 0 0 0 0 0 0 0 0.25 0"/>
<feBlend mode="normal" in2="BackgroundImageFix" result="effect1_dropShadow_213_27"/>
<feBlend mode="normal" in="SourceGraphic" in2="effect1_dropShadow_213_27" result="shape"/>
</filter>
<filter id="filter1_d_213_27" x="49" y="127" width="395" height="275" filterUnits="userSpaceOnUse" color-interpolation-filters="sRGB">
<feFlood flood-opacity="0" result="BackgroundImageFix"/>
<feColorMatrix in="SourceAlpha" type="matrix" values="0 0 0 0 0 0 0 0 0 0 0 0 0 0 0 0 0 0 127 0" result="hardAlpha"/>
<feOffset dy="4"/>
<feGaussianBlur stdDeviation="2"/>
<feComposite in2="hardAlpha" operator="out"/>
<feColorMatrix type="matrix" values="0 0 0 0 0 0 0 0 0 0 0 0 0 0 0 0 0 0 0.25 0"/>
<feBlend mode="normal" in2="BackgroundImageFix" result="effect1_dropShadow_213_27"/>
<feBlend mode="normal" in="SourceGraphic" in2="effect1_dropShadow_213_27" result="shape"/>
</filter>
</defs>
</svg>
