<svg width="493" height="529" viewBox="0 0 493 529" fill="none" xmlns="http://www.w3.org/2000/svg">
<g filter="url(#filter0_d_202_164)">
<rect x="4" width="485" height="521" rx="20" fill="#007EA7"/>
<path d="M4 20C4 8.95431 12.9543 0 24 0H469C480.046 0 489 8.95431 489 20V72H4V20Z" fill="white"/>
<path d="M4.5 20C4.5 9.23045 13.2304 0.5 24 0.5H469C479.77 0.5 488.5 9.23045 488.5 20V71.5H4.5V20Z" stroke="black" stroke-opacity="0.15"/>
<path d="M4 449H489V501C489 512.046 480.046 521 469 521H24C12.9543 521 4 512.046 4 501V449Z" fill="white"/>
<path d="M4.5 449.5H488.5V501C488.5 511.77 479.77 520.5 469 520.5H24C13.2304 520.5 4.5 511.77 4.5 501V449.5Z" stroke="black" stroke-opacity="0.15"/>
<g filter="url(#filter1_d_202_164)">
<rect x="53" y="127" width="387" height="267" rx="20" fill="#F5F5F5"/>
<rect x="53.5" y="127.5" width="386" height="266" rx="19.5" stroke="#00A8E8"/>
</g>
<line x1="53" y1="338" x2="440" y2="338" stroke="#00A8E8" stroke-width="2"/>
<line x1="53" y1="234" x2="440" y2="234" stroke="#00A8E8" stroke-width="2"/>
<line x1="53" y1="181" x2="440" y2="181" stroke="#00A8E8" stroke-width="2"/>
<line x1="53" y1="287" x2="440" y2="287" stroke="#00A8E8" stroke-width="2"/>
<line x1="313" y1="127" x2="313" y2="394" stroke="#00A8E8" stroke-width="2"/>
<line x1="183" y1="127" x2="183" y2="394" stroke="#00A8E8" stroke-width="2"/>
<path d="M244.06 498.892C243.58 499.156 243.064 499.288 242.512 499.288C242.08 499.288 241.72 499.204 241.432 499.036C241.168 498.868 240.928 498.592 240.712 498.208L236.608 491.152C236.032 490.144 235.324 489.436 234.484 489.028C233.668 488.596 232.552 488.38 231.136 488.38H228.688V499H226.096V473.8H234.268C237.172 473.8 239.452 474.448 241.108 475.744C242.764 477.016 243.592 478.792 243.592 481.072C243.592 482.872 242.992 484.432 241.792 485.752C240.592 487.048 239.032 487.852 237.112 488.164C237.808 488.74 238.432 489.472 238.984 490.36L244.06 498.892ZM234.088 486.148C236.248 486.148 237.916 485.704 239.092 484.816C240.292 483.928 240.892 482.68 240.892 481.072C240.892 479.416 240.328 478.168 239.2 477.328C238.096 476.464 236.452 476.032 234.268 476.032H228.688V486.148H234.088ZM264.361 487.696C264.361 488.248 264.337 488.8 264.289 489.352H249.961C250.009 491.848 250.561 493.792 251.617 495.184C252.697 496.576 254.185 497.272 256.081 497.272C257.377 497.272 258.469 497.02 259.357 496.516C260.269 496.012 261.025 495.208 261.625 494.104C261.793 493.792 262.045 493.636 262.381 493.636C262.765 493.636 263.293 493.864 263.965 494.32C263.437 495.88 262.465 497.116 261.049 498.028C259.633 498.916 257.977 499.36 256.081 499.36C254.329 499.36 252.793 498.952 251.473 498.136C250.177 497.296 249.181 496.108 248.485 494.572C247.789 493.012 247.441 491.176 247.441 489.064C247.441 485.872 248.233 483.376 249.817 481.576C251.401 479.752 253.573 478.84 256.333 478.84C258.853 478.84 260.821 479.62 262.237 481.18C263.653 482.74 264.361 484.912 264.361 487.696ZM261.841 487.408C261.841 483.088 259.969 480.928 256.225 480.928C254.401 480.928 252.961 481.48 251.905 482.584C250.849 483.688 250.225 485.296 250.033 487.408H261.841Z" fill="black"/>
<path d="M244.548 24.8C248.268 24.8 251.124 25.892 253.116 28.076C255.132 30.236 256.14 33.344 256.14 37.4C256.14 39.992 255.672 42.236 254.736 44.132C253.824 46.028 252.492 47.48 250.74 48.488C249.012 49.496 246.948 50 244.548 50H237.096V24.8H244.548ZM244.548 47.84C247.476 47.84 249.696 46.964 251.208 45.212C252.72 43.436 253.476 40.844 253.476 37.436C253.476 33.908 252.732 31.28 251.244 29.552C249.78 27.824 247.548 26.96 244.548 26.96H239.688V47.84H244.548Z" fill="black"/>
<circle cx="120" cy="344" r="9" fill="#003459"/>
<circle cx="247" cy="288" r="9" fill="#003459"/>
<circle cx="247" cy="394" r="9" fill="#003459"/>
<path d="M123.583 420.64C124.588 420.831 125.42 421.238 126.079 421.862C126.738 422.469 127.067 423.457 127.067 424.826C127.067 425.901 126.79 426.845 126.235 427.66C125.68 428.475 124.883 429.107 123.843 429.558C122.803 430.009 121.581 430.234 120.177 430.234C118.288 430.234 116.771 429.965 115.627 429.428C114.5 428.891 113.937 428.111 113.937 427.088C113.937 426.499 114.162 426.022 114.613 425.658C115.064 425.294 115.523 425.112 115.991 425.112C116.494 425.961 117.066 426.594 117.707 427.01C118.366 427.426 119.215 427.634 120.255 427.634C121.26 427.634 122.014 427.383 122.517 426.88C123.037 426.377 123.297 425.701 123.297 424.852C123.297 423.881 123.08 423.153 122.647 422.668C122.214 422.183 121.598 421.94 120.801 421.94L119.969 421.966C119.588 422.001 119.284 422.018 119.059 422.018C118.695 422.018 118.392 421.827 118.149 421.446C117.924 421.047 117.811 420.649 117.811 420.25C117.811 419.747 117.958 419.496 118.253 419.496H120.047C120.948 419.496 121.616 419.271 122.049 418.82C122.5 418.369 122.725 417.65 122.725 416.662C122.725 415.986 122.534 415.431 122.153 414.998C121.772 414.565 121.165 414.348 120.333 414.348C119.501 414.348 118.851 414.599 118.383 415.102C117.915 415.587 117.551 416.263 117.291 417.13C116.372 417.13 115.67 416.957 115.185 416.61C114.717 416.246 114.483 415.761 114.483 415.154C114.483 414.669 114.717 414.166 115.185 413.646C115.653 413.126 116.329 412.693 117.213 412.346C118.114 411.982 119.172 411.8 120.385 411.8C122.326 411.8 123.826 412.207 124.883 413.022C125.958 413.819 126.495 414.989 126.495 416.532C126.495 417.572 126.218 418.439 125.663 419.132C125.126 419.808 124.432 420.311 123.583 420.64ZM255.342 417.546C255.342 419.297 254.744 420.943 253.548 422.486C252.369 424.011 250.514 425.658 247.984 427.426H254.952V430H243.278V428.024C245.566 426.152 247.273 424.661 248.4 423.552C249.544 422.443 250.358 421.411 250.844 420.458C251.329 419.505 251.572 418.447 251.572 417.286C251.572 416.419 251.346 415.717 250.896 415.18C250.445 414.625 249.804 414.348 248.972 414.348C248.088 414.348 247.377 414.686 246.84 415.362C246.32 416.038 246.016 416.991 245.93 418.222C244.786 418.222 243.971 418.023 243.486 417.624C243.018 417.225 242.784 416.593 242.784 415.726C242.784 415.119 243.044 414.513 243.564 413.906C244.101 413.282 244.838 412.779 245.774 412.398C246.727 411.999 247.793 411.8 248.972 411.8C250.896 411.8 252.438 412.303 253.6 413.308C254.761 414.296 255.342 415.709 255.342 417.546ZM380.816 427.53V430H370.832V427.53H374.004V416.168C373.276 416.688 372.556 416.948 371.846 416.948C371.308 416.948 370.858 416.801 370.494 416.506C370.147 416.211 369.974 415.743 369.974 415.102C369.974 414.755 370.017 414.417 370.104 414.088C370.918 414.001 371.872 413.759 372.964 413.36C374.056 412.944 374.922 412.424 375.564 411.8H377.774V427.53H380.816Z" fill="black" fill-opacity="0.7"/>
</g>
<defs>
<filter id="filter0_d_202_164" x="0" y="0" width="493" height="529" filterUnits="userSpaceOnUse" color-interpolation-filters="sRGB">
<feFlood flood-opacity="0" result="BackgroundImageFix"/>
<feColorMatrix in="SourceAlpha" type="matrix" values="0 0 0 0 0 0 0 0 0 0 0 0 0 0 0 0 0 0 127 0" result="hardAlpha"/>
<feOffset dy="4"/>
<feGaussianBlur stdDeviation="2"/>
<feComposite in2="hardAlpha" operator="out"/>
<feColorMatrix type="matrix" values="0 0 0 0 0 0 0 0 0 0 0 0 0 0 0 0 0 0 0.25 0"/>
<feBlend mode="normal" in2="BackgroundImageFix" result="effect1_dropShadow_202_164"/>
<feBlend mode="normal" in="SourceGraphic" in2="effect1_dropShadow_202_164" result="shape"/>
</filter>
<filter id="filter1_d_202_164" x="49" y="127" width="395" height="275" filterUnits="userSpaceOnUse" color-interpolation-filters="sRGB">
<feFlood flood-opacity="0" result="BackgroundImageFix"/>
<feColorMatrix in="SourceAlpha" type="matrix" values="0 0 0 0 0 0 0 0 0 0 0 0 0 0 0 0 0 0 127 0" result="hardAlpha"/>
<feOffset dy="4"/>
<feGaussianBlur stdDeviation="2"/>
<feComposite in2="hardAlpha" operator="out"/>
<feColorMatrix type="matrix" values="0 0 0 0 0 0 0 0 0 0 0 0 0 0 0 0 0 0 0.25 0"/>
<feBlend mode="normal" in2="BackgroundImageFix" result="effect1_dropShadow_202_164"/>
<feBlend mode="normal" in="SourceGraphic" in2="effect1_dropShadow_202_164" result="shape"/>
</filter>
</defs>
</svg>
